<svg class="blob1" viewBox="0 0 200 200" xmlns="http://www.w3.org/2000/svg">
  <path fill="#CAE5DD" d="M30.2,-59.4C36.7,-48.5,38,-35.6,39.3,-25.3C40.7,-15.1,42.1,-7.5,47.3,2.9C52.4,13.4,61.1,26.9,56.1,30.9C51.2,34.9,32.5,29.5,20.9,31.9C9.3,34.4,4.6,44.6,-5.2,53.6C-15,62.6,-30,70.2,-41.8,67.9C-53.6,65.5,-62.2,53.2,-62.1,40.2C-62.1,27.3,-53.3,13.6,-46.1,4.1C-39,-5.4,-33.5,-10.8,-28.5,-15.1C-23.6,-19.4,-19.3,-22.7,-14.7,-34.7C-10,-46.6,-5,-67.3,3.4,-73.2C11.8,-79.1,23.6,-70.2,30.2,-59.4Z" transform="translate(100 100)" />
</svg>