<svg class="blob2" viewBox="0 0 200 200" xmlns="http://www.w3.org/2000/svg">
  <path fill="#EFF4F3" d="M45,-78.3C58.9,-70,71,-59,76.7,-45.5C82.5,-32,81.8,-16,79.6,-1.3C77.4,13.5,73.7,26.9,68,40.5C62.3,54,54.6,67.7,43,75.3C31.3,82.9,15.7,84.4,0.2,84.1C-15.3,83.9,-30.7,81.7,-44.2,75.3C-57.8,68.8,-69.7,57.9,-76.8,44.7C-84,31.4,-86.3,15.7,-84.6,1C-82.8,-13.7,-76.9,-27.3,-68.6,-38.6C-60.4,-49.9,-49.7,-58.8,-37.9,-68.3C-26.1,-77.7,-13,-87.7,1.3,-89.9C15.6,-92.1,31.2,-86.6,45,-78.3Z" transform="translate(100 100)" />
</svg>