<svg width="100" height="119" viewBox="0 0 136 155" fill="none" xmlns="http://www.w3.org/2000/svg">
  <g filter="url(#filter0_d)">
    <path d="M5.976 145.949V2h103.951l20.097 32.551V145.95H5.976z" fill="#026FBA"/>
    <path d="M5.976 1.5h-.5v144.949h125.048V34.409l-.075-.12-20.097-32.552-.146-.237H5.977z" stroke="#000"/>
  </g>
  <path d="M105.481 33.93L109.479 2 130 37l-24.519-3.07z" fill="#026FBA" stroke="#000"/>
  <path d="M62.326 66.755c-1.671-.472-2.931-1.25-3.781-2.336-.84-1.076-1.26-2.502-1.26-4.277v-2.818c0-2.293-1.001-3.44-3.002-3.44V51.83c2.001 0 3.002-1.142 3.002-3.426v-2.946c.019-1.727.439-3.12 1.26-4.177.83-1.067 2.09-1.84 3.78-2.322l.539 1.628c-1.973.633-2.96 2.28-2.96 4.942v2.86c0 2.143-.788 3.635-2.364 4.475 1.576.85 2.364 2.355 2.364 4.517v2.917c.029 2.596 1.015 4.206 2.96 4.829l-.538 1.628zm8.34-1.628c1.916-.614 2.908-2.176 2.974-4.687v-3.116c0-2.18.854-3.667 2.563-4.46-1.709-.774-2.563-2.261-2.563-4.46v-2.875c0-2.662-.987-4.31-2.96-4.942l.538-1.628c1.671.472 2.927 1.241 3.767 2.308.84 1.057 1.265 2.459 1.274 4.205v2.974c0 2.256 1 3.384 3.002 3.384v2.053c-2.001 0-3.002 1.148-3.002 3.441v2.86c0 1.776-.43 3.196-1.288 4.263-.85 1.067-2.1 1.836-3.753 2.308l-.552-1.628zM57.824 92.857c-.255 2.18-1.062 3.865-2.421 5.055-1.35 1.18-3.148 1.77-5.395 1.77-2.436 0-4.39-.873-5.862-2.62-1.464-1.746-2.195-4.083-2.195-7.01V88.07c0-1.916.34-3.601 1.02-5.055.689-1.454 1.66-2.567 2.916-3.341 1.256-.784 2.71-1.176 4.362-1.176 2.19 0 3.946.614 5.267 1.841 1.322 1.218 2.091 2.907 2.308 5.07h-2.733c-.236-1.643-.75-2.833-1.543-3.569-.784-.736-1.883-1.105-3.3-1.105-1.736 0-3.1.642-4.092 1.926-.981 1.284-1.472 3.11-1.472 5.48v1.997c0 2.237.467 4.017 1.402 5.338.934 1.322 2.242 1.983 3.922 1.983 1.51 0 2.667-.34 3.47-1.02.811-.689 1.35-1.883 1.613-3.582h2.733zm9.8-2.648c-2.332-.67-4.032-1.492-5.098-2.464-1.058-.982-1.586-2.19-1.586-3.625 0-1.624.646-2.964 1.94-4.022 1.302-1.067 2.992-1.6 5.069-1.6 1.416 0 2.676.274 3.78.822 1.115.547 1.974 1.302 2.578 2.265a5.76 5.76 0 01.92 3.158h-2.733c0-1.246-.396-2.223-1.19-2.931-.792-.718-1.91-1.076-3.355-1.076-1.34 0-2.388.297-3.144.892-.746.585-1.118 1.401-1.118 2.45 0 .84.354 1.552 1.062 2.138.717.575 1.93 1.104 3.639 1.585 1.718.482 3.058 1.015 4.021 1.6.973.576 1.69 1.251 2.153 2.025.472.775.708 1.686.708 2.733 0 1.671-.652 3.012-1.954 4.022-1.303 1-3.045 1.5-5.225 1.5-1.417 0-2.738-.268-3.965-.806-1.228-.548-2.176-1.294-2.847-2.238-.66-.944-.99-2.015-.99-3.214h2.732c0 1.246.458 2.233 1.374 2.96.925.717 2.157 1.076 3.696 1.076 1.434 0 2.534-.293 3.299-.878.764-.586 1.147-1.383 1.147-2.393 0-1.01-.354-1.79-1.062-2.337-.708-.557-1.992-1.104-3.852-1.642zm17.218 0c-2.332-.67-4.031-1.492-5.098-2.464-1.057-.982-1.586-2.19-1.586-3.625 0-1.624.647-2.964 1.94-4.022 1.303-1.067 2.993-1.6 5.07-1.6 1.416 0 2.676.274 3.78.822 1.114.547 1.973 1.302 2.578 2.265a5.76 5.76 0 01.92 3.158h-2.733c0-1.246-.396-2.223-1.19-2.931-.792-.718-1.911-1.076-3.355-1.076-1.34 0-2.389.297-3.144.892-.746.585-1.119 1.401-1.119 2.45 0 .84.354 1.552 1.062 2.138.718.575 1.93 1.104 3.64 1.585 1.718.482 3.058 1.015 4.021 1.6.972.576 1.69 1.251 2.152 2.025.472.775.708 1.686.708 2.733 0 1.671-.651 3.012-1.954 4.022-1.302 1-3.044 1.5-5.225 1.5-1.416 0-2.737-.268-3.965-.806-1.227-.548-2.176-1.294-2.846-2.238-.66-.944-.991-2.015-.991-3.214h2.733c0 1.246.458 2.233 1.373 2.96.925.717 2.157 1.076 3.696 1.076 1.435 0 2.535-.293 3.3-.878.764-.586 1.147-1.383 1.147-2.393 0-1.01-.355-1.79-1.063-2.337-.707-.557-1.991-1.104-3.851-1.642z" fill="#000"/>
  <defs>
    <filter id="filter0_d" x=".976" y="1" width="134.048" height="153.949" filterUnits="userSpaceOnUse" color-interpolation-filters="sRGB">
      <feFlood flood-opacity="0" result="BackgroundImageFix"/>
      <feColorMatrix in="SourceAlpha" values="0 0 0 0 0 0 0 0 0 0 0 0 0 0 0 0 0 0 127 0"/>
      <feOffset dy="4"/>
      <feGaussianBlur stdDeviation="2"/>
      <feColorMatrix values="0 0 0 0 0 0 0 0 0 0 0 0 0 0 0 0 0 0 0.25 0"/>
      <feBlend in2="BackgroundImageFix" result="effect1_dropShadow"/>
      <feBlend in="SourceGraphic" in2="effect1_dropShadow" result="shape"/>
    </filter>
  </defs>
</svg>
