<svg xmlns="http://www.w3.org/2000/svg" viewBox="0 0 530.97 309.48"><defs><style>.cls-2{opacity:.1;isolation:isolate}.cls-4{fill:#2f2e41}.cls-5{fill:#f2f2f2}.cls-6{fill:#a0616a}.cls-7{fill:#d0cde1}.cls-8{fill:#ffb9b9}.cls-9{fill:#d4e8e4}</style></defs><g id="Layer_2" data-name="Layer 2"><g id="a58ef234-55dd-4456-b368-278f056cc5c7"><path d="M531 228.48c0 .71 0 1.42-.09 2.12-3.69 43.76-121.1 78.88-265.4 78.88S3.78 274.36.09 230.6c-.09-.7-.09-1.41-.09-2.12v-.61-.32a.94.94 0 000-.12c0-.45.05-.88.09-1.32 1.68-17.89 22.39-34.33 56.17-47.5 27.62-10.77 64-19.36 105.85-24.76a813.47 813.47 0 01103.36-6.37 836.52 836.52 0 0184.39 4.17q8.32.86 16.39 1.87c36.84 4.62 69.54 11.69 95.88 20.54 16.2 5.45 30 11.58 40.9 18.22 16.77 10.23 26.65 21.7 27.79 33.83 0 .44.07.87.09 1.32a.94.94 0 000 .12v.32c0 .11.09.41.09.61z" opacity=".1" fill="#3f3d56"/><ellipse class="cls-2" cx="233.28" cy="282.48" rx="147.62" ry="24"/><path class="cls-2" d="M468.31 196.27c0 28.57-67.93 19.73-151.11 19.73s-150.1 8.84-150.1-19.73 67.9-34.79 151.1-34.79 150.11 6.21 150.11 34.79z"/><path d="M468.31 192.75c0 35.54-67.93 24.54-151.11 24.54s-150.1 11-150.1-24.54 67.9-43.27 151.1-43.27 150.11 7.73 150.11 43.27z" opacity=".07" fill="#3f3d56"/><path class="cls-4" d="M454.44 121.32l3.43 14.16a.88.88 0 010 .48l-15.58 48.67a.88.88 0 01-1.72-.17l-2.15-19a.88.88 0 010-.37l14.3-43.88a.88.88 0 011.7.07z"/><path class="cls-5" d="M453.18 122.52l3.17 12.15-13.74 44.39-3.17-13.74 13.74-42.8z"/><path class="cls-4" d="M384 188.57c.53 1.59 54.95-.53 55.48-1.06a11.47 11.47 0 001.16-2.11c.5-1.06 1-2.11 1-2.11l-2.11-17.11-53.89-1.91s-1.35 14.5-1.62 21.13a15.85 15.85 0 00-.02 3.17z"/><path class="cls-2" d="M432.57 168.49l1.06 14.79h-23.78v-14.79h22.72zM401.93 173.24l.14-.02-.67 6.36h-13.21v-6.34h13.74zM384 188.57c.53 1.59 54.95-.53 55.48-1.06a11.47 11.47 0 001.16-2.11h-56.72a15.85 15.85 0 00.08 3.17z"/><path class="cls-4" d="M300 133.09h14.79l36.46-14.27s25.89-10.57 23.78 9.51-5.81 47-5.81 47-11.62-5.28-18-3.7-2.11-32.23-2.11-32.23-51.78 24.83-56.53 21.66-5.81-25.36-5.81-25.36z"/><path class="cls-2" d="M300 133.09h14.79l36.46-14.27s25.89-10.57 23.78 9.51-5.81 47-5.81 47-11.62-5.28-18-3.7-2.11-32.23-2.11-32.23-51.78 24.83-56.53 21.66-5.81-25.36-5.81-25.36z"/><path class="cls-6" d="M323.26 86.76l17.9 25.72 41.74 34.87s38.57 9 33.29 15.32-37.51-6.34-37.51-6.34-48.08-34.87-49.68-37.51-19-27.47-19-27.47z"/><path class="cls-2" d="M323.26 86.76l17.9 25.72 41.74 34.87s38.57 9 33.29 15.32-37.51-6.34-37.51-6.34-48.08-34.87-49.68-37.51-19-27.47-19-27.47z"/><circle class="cls-6" cx="320.56" cy="34.81" r="23.78"/><path class="cls-6" d="M319 55.95s-8 13.74-9.54 21.13-23.78-14.79-23.78-14.79l-2.91-7.66s20.87-9.77 19.28-17.7S319 55.95 319 55.95z"/><path class="cls-7" d="M312.63 66l11.62 22.72s-2.64 11.1-6.87 12.15-22.18-13.75-22.18-13.75z"/><path class="cls-6" d="M323.2 97.16l21.66 28.53 51.78 38.57s37.51 7.93 29.06 13.74-32.76-5.28-32.76-5.28-52.31-28-63.4-39.63-31.7-31.17-31.7-31.17z"/><path class="cls-4" d="M294.14 141.54l6.34 10 37.84-11.9a29.75 29.75 0 0124.77 3c6.6 4.16 10.83 10.77 1.32 20.54-19 19.55-31.7 9-31.7 9s-63.93 30.12-74.5 15.32-11.1-22.19-11.1-22.19 40.69-25.31 47.03-23.77z"/><path class="cls-7" d="M373.39 176.41s16.91 11.1-3.17 16.38-34.87-2.11-34.87-2.11-17.44 0-17.44-9 5.81-10 5.81-10l18 2.64s21.64-5.83 31.67 2.09z"/><path class="cls-4" d="M340.06 28.83a17.73 17.73 0 005 1.78 4.55 4.55 0 004.6-2 6.18 6.18 0 00.52-2.8c.06-2.9-.15-6-2-8.28-1.17-1.43-2.88-2.33-4.09-3.72a17.6 17.6 0 01-2.09-3.34c-2.36-4.42-5.84-8.68-10.69-10a23.18 23.18 0 00-6.22-.47l-12.2.21a21.25 21.25 0 00-5.89.63c-3.92 1.16-6.78 4.5-9.4 7.66a47.85 47.85 0 00-5.4 7.45 26.13 26.13 0 00-3.1 12.8 12 12 0 00.44 3.39 18.8 18.8 0 001.33 2.92c2.29 4.5 3.65 10.11 1.07 14.45 4.48-1.83 8.91-4.23 11.86-8.06 1.32-1.71 2.36-3.72 4.12-5s4.63-1.37 5.76.48a5.16 5.16 0 01.58 2.42 11.08 11.08 0 00.67 4.08 3.06 3.06 0 003.32 1.9c2.3-.65 2.08-4.18 3.85-5.78 1.35-1.22 3.42-1 5.15-1.54a7.64 7.64 0 004.39-4.32c.65-1.47.65-5.31 1.88-6.1 1.57-.98 5.1.6 6.54 1.24z"/><path class="cls-7" d="M280.89 52.12a6.27 6.27 0 013.26 0c3.39.91 11 3.32 12.62 7 2.11 4.76 9.51 12.15 9.51 12.15s10 10 7.93 16.91-10 14.79-10 14.79 2.11 32.76-8.45 41.21-14.79 2.64-14.79 10.57-32.76 32.76-39.1 17.44c0 0 3.17-28.53 2.11-38.57s.45-71.62 36.91-81.5z"/><path class="cls-7" d="M297.84 65.46s32.23 23.78 26.42 33.81c0 0-19.55 9.51-23.78 9s-20.61-19-24.83-20.61-6.34-30.13 22.19-22.2z"/><path class="cls-4" d="M208.71 86.76c-5 1.69-9.55 5.65-10.58 10.84-.48 2.41-.18 4.91-.58 7.33-.93 5.61-5.33 9.9-9.4 13.88s-8.26 8.61-8.55 14.29c-.32 6.22 4.19 12 3.41 18.23-.91 7.18-8.49 11.83-10.36 18.82-1.25 4.67.28 9.69 2.81 13.81 4.81 7.85 13 13.18 21.78 16s18.08 3.46 27.28 3.56c11.21.12 23.38-.84 31.81-8.24a25.48 25.48 0 008.46-16.59c.8-8.57-2.78-17.43-.31-25.67 1.55-5.19 5.45-9.93 4.87-15.32s-5.17-9-8.32-13.25c-2.95-4-4.73-8.66-6.49-13.29l-6-15.82c-1.18-3.11-2.47-6.38-5.1-8.42-4.92-3.82-12.82-3.07-18.57-2.28-5.35.75-11.03.36-16.16 2.12z"/><path class="cls-8" d="M210.59 132.86s2.66 8.64-17.27 18.6 2 20.6 2 20.6l23.25 5.32s23.92-3.32 26.57-7.31 7.31-17.27 6-19.27a31.06 31.06 0 00-3.32-4s-15.94-2.66-15.28-10-21.95-3.94-21.95-3.94z"/><path class="cls-2" d="M210.59 132.86s2.66 8.64-17.27 18.6 2 20.6 2 20.6l23.25 5.32s23.92-3.32 26.57-7.31 7.31-17.27 6-19.27a31.06 31.06 0 00-3.32-4s-15.94-2.66-15.28-10-21.95-3.94-21.95-3.94z"/><circle class="cls-8" cx="223.54" cy="125.22" r="21.26"/><path class="cls-9" d="M221.22 170.06s-25.6-1.87-26.09-19.54c0 0-9.12-1.06-11.78 1.6s-11.29 4.65-11.29 11.29S186.67 190 186.67 190s8 26.57 4.65 31.23-4 16.61-4 16.61 33.22-2.66 38.53 0 26.57 2.66 27.9 0-1.31-35.84-1.31-35.84 6-8 4.65-17.27L273 166.08s-6-17.94-15.28-17.94c0 0-12.62-3.32-13-1.66s6.39 20.26-23.5 23.58z"/><path class="cls-8" d="M161.42 228.53s6 9.3 21.26 11.29 17.94-3.32 16.61-4.65-17.29-7.31-17.29-7.31l-9.3-7.31zM270.38 220.56l-17.27 10s-22.59-1.33-14 5.32 24.58 4 24.58 4l15.31-7.37z"/><path class="cls-4" d="M184 237.83S168.07 277 187.33 283s72.42 4.65 84.37-3.32 15.3-18.6 13.3-21.92-15.28-12.62-24.58-13.29-76.42-6.64-76.42-6.64z"/><path d="M184 237.83S168.07 277 187.33 283s72.42 4.65 84.37-3.32 15.3-18.6 13.3-21.92-15.28-12.62-24.58-13.29-76.42-6.64-76.42-6.64z" style="isolation:isolate" opacity=".05"/><path class="cls-4" d="M259.28 240.26s56.28-20.37 55.62 4.21S279 275.7 279 275.7l-10.61 1.3-58.46 2s2-10.63-2.66-12c0 0 15.28-4 15.94-4.65s38.53-14 41.19-14.62 10.63-6 16.61-5.32c0 0 6.64-5.32 14-4l-20.6 1.33z"/><path class="cls-2" d="M259.28 240.26s56.28-20.37 55.62 4.21S279 275.7 279 275.7l-10.61 1.3-58.46 2s2-10.63-2.66-12c0 0 15.28-4 15.94-4.65s38.53-14 41.19-14.62 10.63-6 16.61-5.32c0 0 6.64-5.32 14-4l-20.6 1.33z"/><path class="cls-4" d="M249.33 243.56l7.1 16.19 43.18-15.28 3.32-8.63-11.29-2-22.71 3.99-9.85 2.66-9.75 3.07z"/><path class="cls-2" d="M249.33 243.56l7.1 16.19 43.18-15.28 3.32-8.63-11.29-2-22.71 3.99-9.85 2.66-9.75 3.07z"/><path class="cls-4" d="M157.44 263.08S170.06 279 184.68 283s22.59-1.33 22.59-1.33l-4.65-18.6-2-12-8.64-6-17.27-8-20.6-6.64s-8.64-1.33-8.64 0 8 21.26 8 21.26z"/><path class="cls-5" d="M172.72 271.71s2.66 19.27 6 20.6 13.28-1.31 15.92-2.66 11.69-7.46 11.69-7.46-31.62-11.81-33.61-10.48z"/><path class="cls-8" d="M233.18 273.71l12.62 1.99-1.33 15.28-17.61-4.28 6.32-12.99z"/><path class="cls-5" d="M241.08 278s-5.92 7 .06 11l4 3.32s13.29 2.66 14.62 4 6.64-2 6.64-2 .66-19.93 0-21.26-8.64-2.66-9.3-1.33-8.64 3.32-13.29 2z"/><path class="cls-4" d="M188 242.48s-46.51-27.24-53.81-17.27-15.28 23.92 6 34.55 87.7 32.55 87.7 32.55 10-15.28 10-19.27c0 0-35.21-15.94-41.19-17.27s-29.9-16.61-33.22-17.94-8-5.32-8-5.32z"/><path class="cls-9" d="M174.71 160.1l-2.66 2s-6 15.28-6.64 23.92-8.64 35.21-8 38.53 1.33 6 5.32 9.3c0 0 5.32-12 14.62-10l11.29-41.19zM267.72 160.1l5.32 6s3.32 8 3.32 10 6.64 31.23 7.31 32.55 3.32 17.94 0 21.92-9.3 6.64-9.3 6.64 4-14-8.64-14.62l1.33-5.32-12-39.86z"/><path d="M176 205.84v35a8.41 8.41 0 008.29 8.41l73.19 1.08a8.41 8.41 0 008.53-8.09l1.35-35a8.41 8.41 0 00-8.08-8.73h-.2l-74.53-1.08a8.41 8.41 0 00-8.53 8.29s-.02.08-.02.12z" fill="#3f3d56"/><ellipse class="cls-4" cx="224.79" cy="112.21" rx="22.88" ry="12.32"/><circle class="cls-5" cx="220.88" cy="224.21" r="5.31"/></g></g></svg>