<svg width="100" height="119" viewBox="0 0 135 154" fill="none" xmlns="http://www.w3.org/2000/svg">
<g filter="url(#filter0_d)">
<path d="M5 144.949V1H108.951L129.048 33.5513V144.949H5Z" fill="#F45B3E"/>
<path d="M5 0.5C4.72386 0.5 4.5 0.723858 4.5 1V144.949C4.5 145.225 4.72386 145.449 5 145.449H129.048C129.324 145.449 129.548 145.225 129.548 144.949V33.5513C129.548 33.4586 129.522 33.3676 129.473 33.2887L109.376 0.73733C109.285 0.58981 109.124 0.5 108.951 0.5H5Z" stroke="black" stroke-linejoin="round"/>
</g>
<path d="M44.4172 99.4493H41.6843V89.9195H31.2907V99.4493H28.572V78.8321H31.2907V87.6964H41.6843V78.8321H44.4172V99.4493ZM63.0661 81.0694H56.4391V99.4493H53.7346V81.0694H47.1218V78.8321H63.0661V81.0694ZM69.6364 78.8321L76.3766 95.6544L83.1169 78.8321H86.6428V99.4493H83.924V91.4205L84.1789 82.7545L77.4103 99.4493H75.3288L68.5744 82.7969L68.8434 91.4205V99.4493H66.1247V78.8321H69.6364ZM94.176 97.2261H103.946V99.4493H91.4431V78.8321H94.176V97.2261Z" fill="black"/>
<path d="M49.079 55.6562L57.9432 59.2387V62.0141L46.3602 56.6474V54.58L57.9432 49.2275V52.0029L49.079 55.6562ZM62.6019 66.5454H60.3505L68.9598 44.1582H71.1971L62.6019 66.5454ZM83.3041 55.5713L73.9442 51.9038V49.2133L86.037 54.5659V56.6333L73.9442 62V59.2812L83.3041 55.5713Z" fill="black"/>
<path d="M107.342 29.5869L110.821 1.80386L128.179 32.1962L107.342 29.5869Z" fill="#F45B3E" stroke="black"/>
<defs>
<filter id="filter0_d" x="0" y="0" width="134.048" height="153.949" filterUnits="userSpaceOnUse" color-interpolation-filters="sRGB">
<feFlood flood-opacity="0" result="BackgroundImageFix"/>
<feColorMatrix in="SourceAlpha" type="matrix" values="0 0 0 0 0 0 0 0 0 0 0 0 0 0 0 0 0 0 127 0"/>
<feOffset dy="4"/>
<feGaussianBlur stdDeviation="2"/>
<feColorMatrix type="matrix" values="0 0 0 0 0 0 0 0 0 0 0 0 0 0 0 0 0 0 0.25 0"/>
<feBlend mode="normal" in2="BackgroundImageFix" result="effect1_dropShadow"/>
<feBlend mode="normal" in="SourceGraphic" in2="effect1_dropShadow" result="shape"/>
</filter>
</defs>
</svg>
