<svg width="100" height="119" viewBox="0 0 135 154" fill="none" xmlns="http://www.w3.org/2000/svg"><g filter="url(#filter0_d)"><path d="M5 144.949V1h103.951l20.097 32.551V144.95H5z" fill="#F45B3E"/><path d="M5 .5a.5.5 0 00-.5.5v143.949a.5.5 0 00.5.5h124.048a.5.5 0 00.5-.5V33.551a.498.498 0 00-.075-.262L109.376.737a.5.5 0 00-.425-.237H5z" stroke="#000" stroke-linejoin="round"/></g><path d="M44.417 99.45h-2.733v-9.53H31.291v9.53h-2.719V78.831h2.719v8.864h10.393v-8.864h2.733V99.45zm18.65-18.38h-6.628v18.38h-2.704V81.07h-6.613v-2.238h15.944v2.237zm6.57-2.238l6.74 16.822 6.74-16.822h3.526V99.45h-2.719v-8.028l.255-8.667L77.41 99.45H75.33l-6.755-16.652.27 8.624v8.028h-2.72V78.832h3.512zm24.539 18.394h9.77v2.223H91.443V78.832h2.733v18.394zM49.079 55.656l8.864 3.583v2.775L46.36 56.647V54.58l11.583-5.352v2.775l-8.864 3.653zm13.523 10.89H60.35l8.61-22.388h2.237l-8.595 22.387zM83.304 55.57l-9.36-3.667v-2.69l12.093 5.352v2.067L73.944 62v-2.719l9.36-3.71z" fill="#000"/><path d="M107.342 29.587l3.479-27.783 17.358 30.392-20.837-2.61z" fill="#F45B3E" stroke="#000"/><defs><filter id="filter0_d" x="0" y="0" width="134.048" height="153.949" filterUnits="userSpaceOnUse" color-interpolation-filters="sRGB"><feFlood flood-opacity="0" result="BackgroundImageFix"/><feColorMatrix in="SourceAlpha" values="0 0 0 0 0 0 0 0 0 0 0 0 0 0 0 0 0 0 127 0"/><feOffset dy="4"/><feGaussianBlur stdDeviation="2"/><feColorMatrix values="0 0 0 0 0 0 0 0 0 0 0 0 0 0 0 0 0 0 0.25 0"/><feBlend in2="BackgroundImageFix" result="effect1_dropShadow"/><feBlend in="SourceGraphic" in2="effect1_dropShadow" result="shape"/></filter></defs></svg>