<svg width="100" height="119" viewBox="0 0 135 154" fill="none" xmlns="http://www.w3.org/2000/svg"><g filter="url(#filter0_d)"><path d="M5.952 145V1.05h103.951L130 33.603V145H5.952z" fill="#E9CA35"/><path d="M5.952.55h-.5V145.5H130.5V33.46l-.075-.12L110.328.787l-.146-.237H5.953z" stroke="#000"/></g><path d="M107 29.783L110.479 2l17.358 30.392L107 29.783z" fill="#E9CA35" stroke="#000"/><path d="M55.242 66.856c-1.67-.471-2.931-1.25-3.78-2.336-.84-1.076-1.26-2.501-1.26-4.276v-2.818c0-2.294-1.002-3.441-3.003-3.441v-2.053c2.002 0 3.002-1.143 3.002-3.427V45.56c.02-1.728.44-3.12 1.26-4.178.831-1.066 2.091-1.84 3.781-2.322l.538 1.629c-1.973.632-2.96 2.28-2.96 4.941v2.86c0 2.144-.787 3.635-2.364 4.475 1.577.85 2.365 2.356 2.365 4.517V60.4c.028 2.596 1.015 4.205 2.96 4.828l-.539 1.629zm9.643-19.059c0-.453.132-.83.397-1.133.273-.302.68-.453 1.218-.453.538 0 .944.151 1.217.453.284.302.425.68.425 1.133 0 .434-.141.798-.425 1.09-.273.293-.68.44-1.218.44-.538 0-.944-.147-1.217-.44-.265-.292-.397-.656-.397-1.09zm.496 17.983l-1.487-1.02c.887-1.236 1.35-2.51 1.388-3.822v-2.365h2.563v2.053c0 .954-.236 1.907-.708 2.86-.463.954-1.048 1.718-1.756 2.294zm11.54-.552c1.917-.613 2.908-2.176 2.974-4.687v-3.115c0-2.18.854-3.668 2.563-4.46-1.709-.775-2.563-2.261-2.563-4.461V45.63c0-2.662-.986-4.309-2.96-4.941l.539-1.629c1.67.472 2.926 1.241 3.766 2.308.84 1.057 1.265 2.46 1.275 4.206v2.974c0 2.256 1 3.384 3.002 3.384v2.053c-2.002 0-3.002 1.147-3.002 3.44v2.861c0 1.775-.43 3.196-1.289 4.262-.85 1.067-2.1 1.837-3.752 2.308l-.553-1.628zM61.358 76.781h2.733v14.6c0 1.972-.595 3.516-1.784 4.63-1.18 1.114-2.757 1.67-4.73 1.67-2.048 0-3.644-.523-4.786-1.571-1.142-1.048-1.713-2.516-1.713-4.404h2.718c0 1.18.321 2.1.963 2.761.652.661 1.59.992 2.818.992 1.123 0 2.03-.354 2.719-1.062.699-.708 1.053-1.7 1.062-2.974V76.781zM74.796 88.21c-2.332-.67-4.031-1.492-5.098-2.464-1.057-.982-1.586-2.19-1.586-3.625 0-1.624.647-2.964 1.94-4.022 1.303-1.067 2.993-1.6 5.07-1.6 1.416 0 2.676.274 3.78.822 1.114.547 1.973 1.302 2.578 2.265a5.76 5.76 0 01.92 3.158h-2.733c0-1.246-.397-2.223-1.19-2.931-.792-.718-1.911-1.076-3.355-1.076-1.34 0-2.389.297-3.144.892-.746.585-1.119 1.401-1.119 2.45 0 .84.354 1.552 1.062 2.138.718.575 1.93 1.104 3.64 1.585 1.718.482 3.058 1.015 4.021 1.6.972.576 1.69 1.251 2.152 2.025.472.775.708 1.686.708 2.733 0 1.671-.651 3.012-1.954 4.022-1.302 1-3.044 1.5-5.225 1.5-1.416 0-2.737-.268-3.965-.806-1.227-.548-2.176-1.294-2.846-2.238-.66-.944-.991-2.015-.991-3.214h2.733c0 1.246.458 2.233 1.373 2.96.926.717 2.157 1.076 3.696 1.076 1.435 0 2.535-.293 3.3-.878.764-.586 1.147-1.383 1.147-2.393 0-1.01-.354-1.79-1.063-2.337-.708-.557-1.991-1.104-3.851-1.642z" fill="#000"/><defs><filter id="filter0_d" x=".952" y=".051" width="134.048" height="153.949" filterUnits="userSpaceOnUse" color-interpolation-filters="sRGB"><feFlood flood-opacity="0" result="BackgroundImageFix"/><feColorMatrix in="SourceAlpha" values="0 0 0 0 0 0 0 0 0 0 0 0 0 0 0 0 0 0 127 0"/><feOffset dy="4"/><feGaussianBlur stdDeviation="2"/><feColorMatrix values="0 0 0 0 0 0 0 0 0 0 0 0 0 0 0 0 0 0 0.25 0"/><feBlend in2="BackgroundImageFix" result="effect1_dropShadow"/><feBlend in="SourceGraphic" in2="effect1_dropShadow" result="shape"/></filter></defs></svg>