<?xml version="1.0" encoding="utf-8"?>
<!-- Generator: Adobe Illustrator 21.0.0, SVG Export Plug-In . SVG Version: 6.00 Build 0)  -->
<svg version="1.1" id="Layer_1" xmlns="http://www.w3.org/2000/svg" xmlns:xlink="http://www.w3.org/1999/xlink" x="0px" y="0px"
	 viewBox="0 0 1283.3 706.3" style="enable-background:new 0 0 1283.3 706.3;" xml:space="preserve">
<style type="text/css">
	.st0{opacity:0.24;fill:#17597C;stroke:#FFFFFF;stroke-width:0.5;stroke-miterlimit:10;}
	.st1{opacity:0.24;fill:#24A0A0;stroke:#FFFFFF;stroke-width:0.5;stroke-miterlimit:10;}
	.st2{fill:#EDB98A;stroke:#000000;stroke-width:0.5;stroke-miterlimit:10;}
	.st3{fill:#EDB98A;}
	.st4{fill:#2B2B2B;}
	.st5{fill:#2B2B2B;stroke:#000000;stroke-width:0.5;stroke-miterlimit:10;}
	.st6{opacity:0.16;fill:#17597C;stroke:#FFFFFF;stroke-width:0.5;stroke-miterlimit:10;}
	.st7{fill:#EDB98A;stroke:#FFFFFF;stroke-width:0.5;stroke-miterlimit:10;}
	.st8{fill:#D6EEFC;}
	.st9{fill:#518985;stroke:#FFFFFF;stroke-width:0.5;stroke-miterlimit:10;}
	.st10{fill:#24A0A0;}
	.st11{fill:#9DA0A0;}
	.st12{fill:#FFFFFF;stroke:#B9DBED;stroke-width:3;stroke-miterlimit:10;}
	.st13{opacity:0.29;fill:#FFFFFF;stroke:#B9DBED;stroke-width:3;stroke-miterlimit:10;}
	.st14{fill:#CBE7F4;}
	.st15{fill:#A3D3D0;stroke:#FFFFFF;stroke-width:0.5;stroke-miterlimit:10;}
	.st16{fill:#FFCC5C;}
</style>
<path class="st0" d="M765.9,535.9c30.8-4.8,62.1-4.2,92.9,0.1c14.4,2,28.6,4.7,42.7,8.1c11.4,2.8,25.9,2.8,34.4,11.9
	c5.4,5.8,7,14.2,8.2,22.1c3.1,20.8,5.3,41.8,6.4,62.8c0.8,15.5,3.4,34.4-11.7,44.2c-7.4,4.8-16.5,6.2-25.1,6.8
	c-48.3,3.3-100.2,0.3-147-13c-4.9-1.4-9.7-3-14.5-4.9c-11.7-4.8-22.3-11.7-32.7-18.8c-6.5-4.5-6.5-5.2-5.8-12.2
	c1.3-12.4,2.8-24.8,4.2-37.2c2.4-21,4.8-42.1,7.1-63.2C738.6,540.4,752.2,538,765.9,535.9z"/>
<path class="st1" d="M320.6,660.2c-3.3-8.3-6.5-17.6-3.4-26c6.5-17.3,29.6-17.4,44.9-18.5c27.6-1.9,34.3-3.3,61.8-0.2
	c-3.5-24.5-8.1-46,3.5-75.3c12.4-31.2,66.7-37.9,98.9-39c43.2-1.6,86.6,1.6,129.5,6.2c21.5,2.3,44,5.5,65.3,11
	c18.4,4.8,41.8,10.5,52.5,27.9c6.1,10,6.7,22.4,6.2,34.1c-0.8,21.9-4.6,44.7-11.2,66.1c-4.6,14.8-11.2,30.5-23.3,40.8
	c-11.9,10.2-29.2,12.3-44.4,12.5c-27.8,0.3-55.9-2.1-83.3-6.5c-5.2-0.8-10.4-1.8-15.6-0.8c-3.6,0.7-6.9,2.3-10.3,3.8
	c-73.4,33.1-159.8,33.7-238,20.8c-18.3-3-35-5.8-38.4-26.8C313.8,680.3,315.5,668.8,320.6,660.2z"/>
<path class="st2" d="M323.7,441.1c0.8-6,4.4-10.8,4.6-17.1c0.1-5.1-1-10.2-2.2-15.1c-1.5-6.1-4.5-12-5.4-18.2
	c-0.9-6-1.2-12.1-1-18.2c0.4-12,3-23.8,7.4-34.9c0.2-0.5,0.5-1.1,0.7-1.7c10.4-24.6,30.1-45.2,56.7-56c53.3-21.7,114,3.9,135.7,57.2
	c8.7,21.5,10.1,45.5,3.7,67.8c-6.8,23.8-22.1,41.1-39.1,58.3c-14.6,14.7-33,26.8-53.1,32.5c-28.5,8-58.6,1.4-76.4-23.4
	c-2.9-4.1-5.8-8.1-8.8-12.2c-0.1-0.2-7.2-0.5-8.1-0.8c-2.7-0.9-5.3-2.3-7.5-4C326.7,451.8,322.9,446.8,323.7,441.1z"/>
<polygon class="st3" points="477.5,473.1 493.9,513.3 438.1,536 416.2,482.3 472.2,459.5 "/>
<g>
	<path class="st4" d="M344.3,394.3c-0.6,0-1.2-0.3-1.7-0.7c-0.8-0.9-0.7-2.3,0.2-3.1c4.9-4.4,10.4-7.8,16.5-10.3
		c6.2-2.5,12.7-3.9,19.4-4.2c1.2,0,2.3,0.9,2.3,2.1s-0.9,2.3-2.1,2.3c-6.1,0.2-12.1,1.5-17.9,3.9c-5.6,2.3-10.8,5.5-15.2,9.5
		C345.4,394.1,344.8,394.3,344.3,394.3z"/>
</g>
<path class="st4" d="M382.9,479c-3.7,3.3-7.8,6-12.1,8.1c-1.5-0.8-3-1.8-4.5-2.7c0.1-0.1,0.2-0.2,0.4-0.3c4.8-2,9.3-4.8,13.3-8.4
	c5.6-5,9.8-11,12.5-17.9c0.5-1.1,1.7-1.7,2.9-1.3c1.1,0.5,1.7,1.7,1.3,2.9C393.6,467,389,473.6,382.9,479z"/>
<path class="st5" d="M493.3,267c-12.2-8-25.9-13.7-40.4-17.1c-36.8-8.8-75.5-3.9-112.1,3.1c-11.4,2.2-31,8.6-30.1,23.6
	c0.3,5.9,5.1,6.5,8.2,10.5c-0.9-1.6-15.5,3.9-17.1,4.8c-5.1,2.8-9,7.7-10.3,13.4c-8.9,39.4,60.3,32.5,81.7,32.5
	c-7.2,0-11,10.4-8.1,15.8c8.7,16.1,29.8,11.5,44.4,12.1c8.8,0.3,4.6,18.5,9.5,23.5c5.3,5.4,14.9,3.5,21.3,1.7
	c2.9-0.8,22.9-12,22.1-12.7l7.6,7c-5.2,8.2-11.5,14.9-10.4,25.1c2,18.6,6.9,34.5,13.3,51.9c1.9,5,3.7,10.5,6.9,14.9
	c7.4-1.2,16.6-12,21.8-17.1c24.9-24.6,43.6-59.7,41.7-95.5c-1.3-23.5-5.5-46.2-18.6-66.1C516.4,285.5,505.6,275.1,493.3,267z"/>
<circle class="st3" cx="452" cy="376.1" r="20.1"/>
<path class="st6" d="M886,677.5c-8-10,12.4-30,12.4-30l135.9-94.9l70.5,13c0,0-69.5,58.1-128,93.2l257.5-29.3l16.1,21.6
	c0,0-323.5,48.6-365,39.3C871,687.2,874.9,682.4,886,677.5z"/>
<path class="st7" d="M925.5,637.5c-5.6-21.9,8.7-65.6,8.7-65.6l95.4-207.8l49.5,28.5c0,0-48.8,127.3-89.9,204l180.8-64.2l11.3,47.2
	c0,0-227.2,106.3-256.3,86.1C915,658.7,917.7,648.2,925.5,637.5z"/>
<path class="st8" d="M1143.4,596.9c15.1-6.8,38-15.5,38-15.5l-14.8-48.9l-44.1,15.4L1143.4,596.9z"/>
<path class="st8" d="M1063.3,433c6.5-15.3,16.2-41,16.2-41l-49.6-28.8l-18.8,41.2L1063.3,433z"/>
<path class="st9" d="M765.9,521.9c30.8-4.8,62.1-4.2,92.9,0.1c14.4,2,28.6,4.7,42.7,8.1c11.4,2.8,25.9,2.8,34.4,11.9
	c5.4,5.8,7,14.2,8.2,22.1c3.1,20.8,5.3,41.8,6.4,62.8c0.8,15.5,3.4,34.4-11.7,44.2c-7.4,4.8-16.5,6.2-25.1,6.8
	c-48.3,3.3-100.2,0.3-147-13c-4.9-1.4-9.7-3-14.5-4.9c-11.7-4.8-22.3-11.7-32.7-18.8c-6.5-4.5-6.5-5.2-5.8-12.2
	c1.3-12.4,2.8-24.8,4.2-37.2c2.4-21,4.8-42.1,7.1-63.2C738.6,526.4,752.2,524,765.9,521.9z"/>
<path class="st9" d="M1026.1,372.5c-1.2-0.6-1.8-2-1.3-3.3c3.8-9.9,3.5-17.5,7.1-31c2.4-8.8,7.9-17.3,13.1-24.9s20.9-4.2,28.9-2.2
	c9.8,2.4,19.1,7.2,28.3,11.1c17,7.2,34,14.4,51,21.8c9.8,4.2,19.5,9.2,28.7,14.6c1.4,0.8,2.7,1.6,4.1,2.4c14.7,8.5,5.1,40.8-12,45
	c-6.1,1.5-12.5,0.6-18.6-0.9c-17.1-4.3-32.8-11.8-49.3-17.8c-11.8-4.3-17.6-0.8-26,9.3c-1.3,1.5-3.4,1.9-5.2,1L1026.1,372.5z"/>
<path class="st10" d="M1026.6,364.6c-0.6,1.5-1.2,3-1.8,4.6c-0.5,1.3,0.1,2.7,1.3,3.3l48.9,25c1.8,0.9,3.9,0.5,5.2-1
	c0.9-1.1,1.8-2.1,2.7-3.1L1026.6,364.6z"/>
<path class="st11" d="M1192.9,371.6c-0.8-4.6-3-8.5-6.8-10.8c-1.4-0.8-2.7-1.6-4.1-2.4c-9.3-5.3-18.9-10.4-28.7-14.6
	c-16.9-7.3-33.9-14.6-51-21.8c-9.2-3.9-18.5-8.7-28.3-11.1c-8-2-23.8-5.4-28.9,2.2c5.4,0.6,10.4,2.7,15.7,4.2c7,2,20.5,6.2,27.3,9
	c26.6,10.8,96.8,42.2,103.5,44.7C1191.9,371.3,1192.4,371.5,1192.9,371.6z"/>
<path class="st9" d="M1161.8,531c-0.4-1.3,0.2-2.7,1.4-3.2c9.7-4.3,14.9-9.9,27-16.8c7.9-4.5,17.8-6.5,26.9-8.2
	c9-1.7,17.8,11.9,22,19c5.2,8.6,8.3,18.6,12.1,27.9c6.9,17.1,13.8,34.3,20.5,51.5c3.9,9.9,7.2,20.3,9.9,30.7c0.4,1.5,0.8,3,1.2,4.6
	c4.3,16.4-25.3,32.3-40.4,23.2c-5.4-3.3-9.3-8.5-12.5-13.9c-9-15.2-14.8-31.6-22.2-47.5c-5.2-11.4-11.8-13.1-24.9-11.9
	c-2,0.2-3.8-1-4.4-2.9L1161.8,531z"/>
<path class="st10" d="M1167.8,525.8c-1.5,0.6-3,1.3-4.5,1.9c-1.2,0.5-1.8,1.9-1.4,3.2l16.8,52.3c0.6,1.9,2.4,3.1,4.4,2.9
	c1.4-0.1,2.8-0.2,4.1-0.3L1167.8,525.8z"/>
<path class="st11" d="M1280.1,648.7c2.7-3.8,3.9-8.1,2.8-12.5c-0.4-1.5-0.8-3-1.2-4.6c-2.7-10.3-6-20.7-9.9-30.7
	c-6.8-17.2-13.6-34.3-20.5-51.5c-3.7-9.3-6.9-19.3-12.1-27.9c-4.2-7.1-12.9-20.6-22-19c3.4,4.3,5.5,9.3,8.1,14.1
	c3.5,6.4,10.1,18.9,12.9,25.7c11.1,26.5,38.3,98.4,41.3,104.9C1279.7,647.8,1279.9,648.3,1280.1,648.7z"/>
<path class="st12" d="M5.1,474.4h120.8c2.3,0,4.4,1.6,4.9,3.9l31.6,128c0.1,0.4,0.1,0.9,0.1,1.3c0.4-0.1,0.7-0.1,1.1-0.1h130.3
	c4.7,0,7.5,5.2,4.9,9.2L247,694.2c-3.2,4.8-8.6,7.7-14.4,7.7h-169c-1,0-1.8-0.5-2.3-1.3c-2.8,1.2-6.2-0.2-7-3.4L0.2,480.6
	C-0.6,477.5,1.8,474.4,5.1,474.4z"/>
<path class="st13" d="M5.1,487.1h120.8c2.3,0,4.4,1.6,4.9,3.9l31.6,128c0.1,0.4,0.1,0.9,0.1,1.3c0.4-0.1,0.7-0.1,1.1-0.1h130.3
	c4.7,0,7.5,5.2,4.9,9.2L247,706.9c-3.2,4.8-8.6,7.7-14.4,7.7h-169c-1,0-1.8-0.5-2.3-1.3c-2.8,1.2-6.2-0.2-7-3.4L0.2,493.3
	C-0.6,490.2,1.8,487.1,5.1,487.1z"/>
<path class="st14" d="M124.8,490.4l29,116.7c0.4,1.5-0.1,3.2-1.2,4.3l-82.9,68.9c-2.3,2.2-6,1-6.7-2.2L19.3,492.5
	c-0.6-2.7,1.3-5.4,4-5.4h97.6C122.7,487.1,124.3,488.4,124.8,490.4z"/>
<g>
	<polygon class="st14" points="187.5,651 197,641.8 211.5,641.8 202.9,651 	"/>
	<polygon class="st14" points="225.1,627.4 216.4,636.6 202.4,636.6 211.9,627.4 	"/>
	<polygon class="st14" points="182.1,656.3 198,656.3 189.4,665.5 172.6,665.5 	"/>
	<polygon class="st14" points="205.9,622.1 188,622.1 194.8,615.5 212.9,615.5 	"/>
	<polygon class="st14" points="95.7,679.9 106,670.7 124.9,670.7 115.2,679.9 	"/>
	<polygon class="st14" points="157.6,679.9 167.1,670.7 184.5,670.7 175.9,679.9 	"/>
	<polygon class="st14" points="140.3,656.3 130.5,665.5 111.9,665.5 122.3,656.3 	"/>
	<path class="st14" d="M176.6,622.1h-15.9l6-5.3c0.9-0.8,2.1-1.3,3.3-1.3h13.6L176.6,622.1z"/>
	<polygon class="st14" points="200.3,627.4 190.5,636.6 173.1,636.6 182.6,627.4 	"/>
	<polygon class="st14" points="175.2,651 158.2,651 167.7,641.8 185,641.8 	"/>
	<polygon class="st14" points="230,622.1 217.3,622.1 224.1,615.5 236.1,615.5 	"/>
	<polygon class="st14" points="155.6,641.8 145.9,651 128.2,651 138.6,641.8 	"/>
	<polygon class="st14" points="171,627.4 161.2,636.6 144.5,636.6 154.8,627.4 	"/>
	<polygon class="st14" points="128.3,679.9 137.8,670.7 154.3,670.7 144.5,679.9 	"/>
	<polygon class="st14" points="152.7,656.3 169.6,656.3 159.8,665.5 143.2,665.5 	"/>
</g>
<path class="st14" d="M225.9,667.5c-0.9,1.1-2.4,1.8-3.8,1.8H201c-2.1,0-3.1-2.6-1.5-4l25.1-27.5c0.9-0.8,2.1-1.3,3.3-1.3h13.7
	c4.3,0,6.6,5,3.8,8.3L225.9,667.5z"/>
<path class="st7" d="M316.4,614.4c-2.8-2.9-11.9-5-15.7-6.5c-11.7-4.5-24.2-6.6-36.7-7c-10.6-0.3-30.6,1.6-34.2,14
	c-1,3.5-0.5,7.3,1.4,10.4c4.5,7.3,14.8,9.3,22.6,10.4c10.3,1.5,20.9,2.3,31.3,3.4c11.1,1.2,22.7,3.3,33.9,3.3l19.3-5.3
	C338.2,637.2,316.4,614.4,316.4,614.4z"/>
<path class="st7" d="M332.9,642.4c-0.3-1.4-19.5-5-22-5.6c-8.3-2.2-16.6-4.2-25.1-5.6c-16.3-2.7-32.4-2.3-48,3.7
	c-6.9,2.7-17.9,6.2-19,14.8c-0.6,4.6,1.2,10.1,3.4,14.1c7.3,13.4,28.7,15.8,42.1,16.8c14.4,1.1,28.8,1.1,43.2,2
	c4.7,0.3,9.7,1.1,14.4,1.2c5.4,0.1,11-1.8,16.2-2.8C338.2,680.9,332.9,642.4,332.9,642.4z"/>
<path class="st15" d="M320.6,641.5c-3.3-8.3-6.5-17.6-3.4-26c6.5-17.3,29.6-17.4,44.9-18.5c27.6-1.9,34.3-3.3,61.8-0.2
	c-3.5-24.5-8.1-46,3.5-75.3c12.4-31.2,66.7-37.9,98.9-39c43.2-1.6,86.6,1.6,129.5,6.2c21.5,2.3,44,5.5,65.3,11
	c18.4,4.8,41.8,10.5,52.5,27.9c6.1,10,6.7,22.4,6.2,34.1c-0.8,21.9-4.6,44.7-11.2,66.1c-4.6,14.8-11.2,30.5-23.3,40.8
	c-11.9,10.2-29.2,12.3-44.4,12.5c-27.8,0.3-55.9-2.1-83.3-6.5c-5.2-0.8-10.4-1.8-15.6-0.8c-3.6,0.7-6.9,2.3-10.3,3.8
	c-73.4,33.1-159.8,33.7-238,20.8c-18.3-3-35-5.8-38.4-26.8C313.8,661.6,315.5,650.1,320.6,641.5z"/>
<path class="st16" d="M69.6,175.1l11.6,14.7c1.6,2,4.8,1.6,5.7-0.8l6.9-17.4l6.9-17.4c1-2.4-1-4.9-3.6-4.6l-18.5,2.7L60.2,155
	c-2.5,0.4-3.8,3.4-2.2,5.4L69.6,175.1z"/>
<g>
	<path class="st16" d="M188.9,253.8c-0.6-1.7-1.8-2.9-3.4-3.7c-1.6-0.8-3.4-0.8-5-0.2s-2.9,1.8-3.7,3.4c-0.8,1.6-0.9,3.4-0.3,5.1
		c0.6,1.8,1.7,3.1,3.4,3.8c1.6,0.8,3.4,0.8,5.1,0.1c1.7-0.6,2.9-1.9,3.7-3.5C189.5,257.2,189.6,255.5,188.9,253.8z"/>
	<path class="st16" d="M226.4,208.6L226.4,208.6c-2.2-4.5-6.4-8.3-12.5-11.1c-4.4-2.1-10-3.1-16.6-3.2l0,0c-1.9,0-3.4,1.4-3.6,3.3
		l-0.4,6.1c-0.1,2,1.5,3.8,3.5,3.8l0,0c4.9,0,8.6,0.6,11.1,1.7c2.4,1.1,4.1,2.6,4.9,4.2c0.4,0.9,0.9,2.5-0.4,5.1
		c-0.6,1.3-1.4,2.3-2.5,3.1c-1.2,0.9-2.9,1.7-5.1,2.2l-7.9,2.3c-5.4,1.6-9.6,5.4-12.4,11.3l-1.1,2.4c-0.8,1.8-0.1,3.9,1.7,4.7
		l5.8,2.7c1.8,0.8,3.9,0.1,4.7-1.7l1.1-2.3c0.6-1.3,1.2-2.2,1.8-2.8s1.2-1.1,1.8-1.3c0.3-0.1,1.5-0.6,6.5-1.9
		c9.8-2.6,16.2-6.8,18.9-12.7C228.5,218.6,228.7,213.3,226.4,208.6z"/>
</g>
<path class="st16" d="M189,393.1l26,7c4.5,1.2,9.1-1.4,10.3-5.9l7.1-26c1.2-4.5-1.4-9.1-5.9-10.3l-26-7c-4.5-1.2-9.1,1.4-10.3,5.9
	l-7.1,26C181.9,387.2,184.6,391.9,189,393.1z"/>
<path class="st16" d="M109.6,320.9c-8,0.5-10.9-5.9-10.9-5.9l0.5-0.2l6.2-2.2c7.8-2.8,11.9-11.4,9.2-19.2l-1.7-4.9
	c-2.8-7.8-11.4-11.9-19.2-9.2l-51.9,18.3c-7.8,2.8-11.9,11.4-9.2,19.2l1.7,4.9c2.8,7.8,11.4,11.9,19.2,9.2L83,320.5h0.1
	C98.6,331.8,117.5,320.4,109.6,320.9z"/>
<circle class="st16" cx="227.9" cy="89.3" r="19.3"/>
<path class="st16" d="M76.9,35.1l-5.1-12.3c-0.8-2,0.1-4.4,2.2-5.2l12.6-5.2c-0.1-0.2-0.2-0.4-0.3-0.6v-0.1
	c-1.1-1.2-1.8-2.9-1.8-4.7c0-3.9,3.1-7,7-7s7,3.1,7,7c0,0.1,0,0.1,0,0.2s0.1,0.1,0.1,0.2L111,2.2c2-0.8,4.4,0.1,5.2,2.2l15.4,37
	c0.8,2-0.1,4.4-2.1,5.2l-11.9,5c-0.5-3.4-3.4-6-6.9-6c-3.9,0-7,3.1-7,7c0,1.3,0.4,2.6,1.1,3.7l0,0l0,0c0.1,0.3,0,0.7-0.3,0.8l-12,5
	c-2,0.8-4.4-0.1-5.2-2.2L82,47.3c-0.1,0-0.1,0.1-0.2,0.1c-1.2,1-2.7,1.6-4.4,1.6c-3.9,0-7-3.1-7-7C70.3,38.3,73.2,35.3,76.9,35.1z"
	/>
<path class="st4" d="M358.7,416c0.5-2.9,1.8-5.6,3.5-8s4-4.5,6.8-5.9c1.4-0.7,2.9-1.2,4.3-1.5l2.3-0.3c0.8-0.1,1.5,0,2.3,0
	c1.5,0,3,0.5,4.4,0.8c1.4,0.5,2.7,1.1,4,1.8c0.1,0.1,0.2,0.2,0.2,0.4c0,0.2-0.2,0.4-0.4,0.4H386c-1.4,0-2.8-0.3-4.1-0.4
	c-1.3,0-2.6-0.1-3.9,0.1c-0.9,0-1.8,0.2-2.6,0.4c3,0.4,5.8,2.2,7.2,5.2c2.2,4.6,0.2,10.1-4.4,12.3c-4.6,2.2-10.1,0.2-12.3-4.4
	c-1.3-2.7-1.1-5.8,0.2-8.2c-0.5,0.4-0.9,0.8-1.4,1.3c-1.8,1.9-3.5,4-5.1,6.3l0,0c-0.1,0.1-0.3,0.2-0.4,0.2
	C358.8,416.5,358.7,416.3,358.7,416z"/>
</svg>
